/* XPM */
static char * icon32x32_xpm[] = {
"32 32 13 1",
" 	c None",
".	c #08B808",
"+	c #089008",
"@	c #000070",
"#	c #086808",
"$	c #F8F8F8",
"%	c #F80830",
"&	c #A00020",
"*	c #500010",
"=	c #200008",
"-	c #C0B078",
";	c #908058",
">	c #F8E098",
"                                ",
"            ........            ",
"            ........            ",
"        ....++++++++....        ",
"        ....++++++++....        ",
"      ..++++@@@@@@@@++++..      ",
"      ..++++@@@@@@@@++++..      ",
"    ..++##@@@@@@@@@@@@##++..    ",
"    ..++##@@@@@@@@@@@@##++..    ",
"    ..++@@$$@@%%&&@@@@@@++..    ",
"    ..++@@$$@@%%&&@@@@@@++..    ",
"  ..++##@@@@@@&&**@@@@@@##++..  ",
"  ..++##@@@@@@&&**@@@@@@##++..  ",
"  ..++@@@@%%&&====%%&&@@@@++..  ",
"  ..++@@@@%%&&====%%&&@@@@++..  ",
"  ..++@@==&&**====&&**==@@++..  ",
"  ..++@@==&&**====&&**==@@++..  ",
"  ..####==##========##==####..  ",
"  ..####==##========##==####..  ",
"  ##..####..##====##..####..##  ",
"    ..##..  --####--  ..##..    ",
"    ..##..  --####--  ..##..    ",
"      ..;;    ....    ;;..      ",
"      ..;;    ....    ;;..      ",
"        >>--        -->>        ",
"        >>--        -->>        ",
"                                ",
"                                ",
"                                ",
"                                ",
"                                ",
"                                "};
